<svg height="800" preserveAspectRatio="xMidYMid meet" viewBox="0 0 36 36" width="800" xmlns="http://www.w3.org/2000/svg"><path d="m0 27a4 4 0 0 0 4 4h28a4 4 0 0 0 4-4v-2h-36z" fill="#002b7f"/><path d="m0 21h36v4h-36z" fill="#f9e814"/><path d="m32 5h-28a4 4 0 0 0 -4 4v12h36v-12a4 4 0 0 0 -4-4zm-28 4.764-1.176.854.449-1.382-1.175-.854h1.453l.449-1.382.449 1.382h1.453l-1.175.854.449 1.382zm5.567 5.393-1.567-1.138-1.567 1.139.599-1.843-1.567-1.139h1.937l.598-1.843.599 1.843h1.937l-1.567 1.139z" fill="#002b7f"/><path d="m8.599 12.176-.599-1.843-.599 1.843h-1.937l1.567 1.139-.598 1.842 1.567-1.138 1.567 1.138-.598-1.842 1.567-1.139zm-2.697-3.794h-1.453l-.449-1.382-.449 1.382h-1.453l1.175.854-.449 1.382 1.176-.854 1.176.854-.449-1.382z" fill="#fff"/></svg>