<svg height="800" preserveAspectRatio="xMidYMid meet" viewBox="0 0 36 36" width="800" xmlns="http://www.w3.org/2000/svg"><path d="m34.618 5.998-2.618.002-1.5-1h-10.5l-2 1-2-1h-10.5l-1.5 1-2.618-.002a3.973 3.973 0 0 0 -1.382 3.002v6.5l1 2.5-1 2.5v6.5c0 1.203.542 2.269 1.382 3.002l2.618-.002 1.5 1h10.5l2-1 2 1h10.5l1.5-1 2.618.002a3.973 3.973 0 0 0 1.382-3.002v-6.5l-1-2.5 1-2.5v-6.5a3.973 3.973 0 0 0 -1.382-3.002z" fill="#d20000"/><path d="m36 20.5v-5l-13.681 1.9a4.344 4.344 0 0 0 -.779-1.957l13.091-9.455a3.982 3.982 0 0 0 -2.631-.988h-1.5l-9.663 9.691a4.338 4.338 0 0 0 -2.392-1.026l1.555-8.665h-4l1.555 8.665a4.335 4.335 0 0 0 -2.392 1.026l-9.663-9.691h-1.5a3.986 3.986 0 0 0 -2.632.988l13.092 9.455a4.344 4.344 0 0 0 -.779 1.957l-13.681-1.9v5l13.681-1.9c.101.724.369 1.391.779 1.957l-13.092 9.455.001.001a3.983 3.983 0 0 0 2.631.987h1.5l9.663-9.691a4.338 4.338 0 0 0 2.392 1.026l-1.555 8.665h4l-1.555-8.665a4.335 4.335 0 0 0 2.392-1.026l9.663 9.691h1.5a3.984 3.984 0 0 0 2.632-.988l-13.092-9.455c.41-.566.678-1.233.779-1.957z" fill="#ffe600"/><path d="m18 13.62c-2.415 0-4.38 1.965-4.38 4.38s1.965 4.38 4.38 4.38 4.38-1.965 4.38-4.38-1.965-4.38-4.38-4.38zm0 7.737c-1.851 0-3.357-1.506-3.357-3.357s1.506-3.357 3.357-3.357 3.357 1.506 3.357 3.357-1.506 3.357-3.357 3.357z" fill="#d20000"/></svg>