<svg height="800" viewBox="0 0 32 32" width="800" xmlns="http://www.w3.org/2000/svg"><g fill-rule="evenodd" stroke-linecap="round" stroke-linejoin="round" stroke-miterlimit="4.1" transform="translate(-396 -436)"><path d="m419 456.01367a1 1 0 0 0 -1 1v3.58594l-.29297-.29297a1 1 0 0 0 -.70703-.29297 1 1 0 0 0 -.70703.29297 1 1 0 0 0 0 1.41406l2 2a1.0001 1.0001 0 0 0 .0469.0371 1 1 0 0 0 .0859.0684 1.0001 1.0001 0 0 0 .0898.0566 1 1 0 0 0 .10547.0508 1.0001 1.0001 0 0 0 .10352.0352 1 1 0 0 0 .10547.0254 1.0001 1.0001 0 0 0 .11914.0137 1 1 0 0 0 .0508.006 1 1 0 0 0 .0508-.006 1.0001 1.0001 0 0 0 .11914-.0137 1 1 0 0 0 .10547-.0254 1.0001 1.0001 0 0 0 .10352-.0352 1 1 0 0 0 .10547-.0508 1.0001 1.0001 0 0 0 .0898-.0566 1 1 0 0 0 .0859-.0684 1.0001 1.0001 0 0 0 .0469-.0371l2-2a1 1 0 0 0 0-1.41406 1 1 0 0 0 -1.41406 0l-.29291.29297v-3.58594a1 1 0 0 0 -1-1z"/><path d="m408 437c-2.63824 0-5.03895.59351-6.85742 1.62305s-3.14258 2.58812-3.14258 4.47265v17.80469c0 1.88494 1.32411 3.4461 3.14258 4.47656 1.81847 1.03047 4.219 1.62305 6.85742 1.62305 2.54606 0 4.86486-.55269 6.65625-1.51953 1.19527.95007 2.70502 1.51953 4.34375 1.51953 3.85414 0 7-3.14585 7-7 0-3.85414-3.14586-7-7-7-.33979 0-.67289.025-1 .0723v-9.97657c0-1.88453-1.32411-3.44311-3.14258-4.47265-1.81847-1.02957-4.21918-1.62308-6.85742-1.62308zm0 2c2.33231 0 4.43222.54865 5.87109 1.36328 1.43889.81464 2.12891 1.80225 2.12891 2.73242 0 .93097-.69003 1.92119-2.12891 2.73633-1.43886.81515-3.5389 1.36328-5.87109 1.36328s-4.43223-.54813-5.87109-1.36328c-1.43888-.81514-2.12891-1.80536-2.12891-2.73633 0-.93017.69002-1.91778 2.12891-2.73242 1.43887-.81463 3.53878-1.36328 5.87109-1.36328zm-8 7.79492c.35022.28389.73259.54508 1.14258.77735 1.81848 1.03019 4.21906 1.62304 6.85742 1.62304s5.03894-.59285 6.85742-1.62304c.40999-.23227.79236-.49346 1.14258-.77735v2.23633c0 .93097-.69003 1.91923-2.12891 2.73437-1.43886.81514-3.5389 1.36524-5.87109 1.36524s-4.43223-.5501-5.87109-1.36524c-1.43888-.81514-2.12891-1.8034-2.12891-2.73437zm0 5.9336c.35022.28373.73259.54507 1.14258.77734 1.81848 1.0302 4.21906 1.625 6.85742 1.625s5.03894-.5948 6.85742-1.625c.40999-.23227.79236-.49361 1.14258-.77734v.94921c-1.90408.90926-3.33657 2.65527-3.82031 4.75586-1.21133.39535-2.64498.63087-4.17969.63086-2.33226 0-4.43224-.54836-5.87109-1.36328-1.43887-.81492-2.12891-1.80341-2.12891-2.73437zm19 2.27148c2.77327 0 5 2.22674 5 5 0 2.77327-2.22673 5-5 5s-5-2.22673-5-5c0-.21391.0133-.42422.0391-.63086a.99999499.99999499 0 0 0 .0176-.13281c.27125-1.78885 1.48397-3.25773 3.11914-3.89453a.99999499.99999499 0 0 0 .28906-.10352c.48292-.15418.99918-.23828 1.5351-.23828zm-19 3.66406c.35022.28372.73259.54514 1.14258.77735 1.81849 1.02993 4.21913 1.62305 6.85742 1.62304 1.43128 0 2.78941-.17768 4.02539-.50195.10036 1.24866.52985 2.40692 1.20313 3.38672-1.39006.63465-3.21756 1.05078-5.22852 1.05078-2.33213 0-4.43222-.54791-5.87109-1.36328-1.43889-.81536-2.12891-1.80536-2.12891-2.73633z"/></g></svg>