<svg viewBox="0 0 47 48" xmlns="http://www.w3.org/2000/svg"><g fill="none" fill-rule="evenodd"><path d="m9.82727273 24c0-1.5242667.25315907-2.9856.70499997-4.3562667l-7.90881815-6.0394666c-1.54138637 3.1296-2.40981819 6.656-2.40981819 10.3957333 0 3.7365333.86736364 7.2608 2.40661364 10.3882667l7.9045455-6.0512c-.4475682-1.3642667-.69752277-2.8202667-.69752277-4.3370667" fill="#fbbc05"/><path d="m23.7136364 10.1333333c3.3113636 0 6.3022727 1.1733334 8.6522727 3.0933334l6.8363636-6.8266667c-4.1659091-3.62666667-9.5068182-5.86666667-15.4886363-5.86666667-9.2867728 0-17.26822731 5.31093334-21.09018185 13.07093337l7.90881815 6.0394666c1.8223182-5.5317333 7.0168864-9.5104 13.1813637-9.5104" fill="#ea4335"/><path d="m23.7136364 37.8666667c-6.1644773 0-11.3590455-3.9786667-13.1813637-9.5104l-7.90881815 6.0384c3.82195454 7.7610666 11.80340905 13.072 21.09018185 13.072 5.7318636 0 11.2041591-2.0352 15.3113181-5.8485334l-7.5071818-5.8037333c-2.1182045 1.3344-4.7854545 2.0522667-7.8041363 2.0522667" fill="#34a853"/><path d="m46.1454545 24c0-1.3866667-.2136363-2.88-.5340909-4.2666667h-21.8977272v9.0666667h12.6045454c-.6302273 3.0912-2.3457273 5.4677333-4.8004091 7.0144l7.5071818 5.8037333c4.3143864-4.0042666 7.1205-9.9690666 7.1205-17.6181333" fill="#4285f4"/></g></svg>