<svg fill="none" height="800" viewBox="0 0 24 24" width="800" xmlns="http://www.w3.org/2000/svg"><g fill="#292d32"><path d="m22.0206 16.8198-3.13-7.32002c-.57-1.34-1.42-2.1-2.39-2.15-.96-.05-1.89.62-2.6 1.9l-1.9 3.41002c-.4.72-.97 1.15-1.59 1.2-.62997.06-1.25997-.27-1.76997-.92l-.22-.28c-.71-.89-1.59-1.32-2.49-1.23s-1.67.71-2.18 1.72l-1.73 3.45c-.62 1.25-.56 2.7.17 3.88s2 1.89 3.39 1.89h12.75997c1.34 0 2.59-.67 3.33-1.79.76-1.12.88-2.53.35-3.76z" opacity=".4"/><path d="m6.96984 8.38012c1.86673 0 3.37996-1.51328 3.37996-3.38 0-1.86673-1.51323-3.38-3.37996-3.38-1.86672 0-3.38 1.51327-3.38 3.38 0 1.86672 1.51328 3.38 3.38 3.38z"/></g></svg>