<svg height="800" viewBox="0 0 24 24" width="800" xmlns="http://www.w3.org/2000/svg"><path d="m20.4961766 5.62668182c.8758909.3077952 1.5038234 1.14222595 1.5038234 2.12331818v10c0 2.3472102-1.9027898 4.25-4.25 4.25h-10c-.98109223 0-1.81552298-.6279325-2.12331818-1.5038234l2.09728006.0033799 10.02603812.0004435c1.5187831 0 2.75-1.2312169 2.75-2.75v-10l-.0039806-.05098057zm-3.2493636-3.62668182c1.2426407 0 2.25 1.00735931 2.25 2.25v12.996813c0 1.2426407-1.0073593 2.25-2.25 2.25h-12.996813c-1.24264069 0-2.25-1.0073593-2.25-2.25v-12.996813c0-1.24264069 1.00735931-2.25 2.25-2.25zm-3.7771431 5.46966991-3.88852426 3.88852429-.98114564-1.3081942c-.24852814-.33137085-.71862915-.39852814-1.05-.15-.33137085.2485281-.39852814.7186292-.15 1.05l1.5 2c.27384721.3651296.80759806.4030621 1.1303301.0803301l4.5-4.50000001c.2928932-.29289322.2928932-.76776696 0-1.06066018-.2928932-.29289321-.767767-.29289321-1.0606602 0z" fill="#212121"/></svg>