<svg height="800" viewBox="0 0 512 512" width="800" xmlns="http://www.w3.org/2000/svg"><path d="m462.657 137.343c-31.82-31.819-73.959-49.343-118.657-49.343h-176c-44.698 0-86.837 17.524-118.657 49.343s-49.343 73.959-49.343 118.657 17.524 86.837 49.343 118.657 73.959 49.343 118.657 49.343h176c44.698 0 86.837-17.524 118.657-49.343s49.343-73.959 49.343-118.657-17.524-86.837-49.343-118.657zm-11.314 226c-28.797 28.798-66.919 44.657-107.343 44.657h-176c-40.424 0-78.546-15.859-107.343-44.657s-44.657-66.919-44.657-107.343 15.859-78.546 44.657-107.343 66.919-44.657 107.343-44.657h176c40.424 0 78.546 15.859 107.343 44.657s44.657 66.919 44.657 107.343-15.859 78.546-44.657 107.343z"/><path d="m120 152c-13.234 0-24 10.766-24 24v160c0 13.234 10.766 24 24 24h272c13.234 0 24-10.766 24-24v-160c0-13.234-10.766-24-24-24zm128 143.195c-18.236-3.716-32-19.878-32-39.195s13.764-35.479 32-39.195zm16-78.39c18.236 3.716 32 19.878 32 39.195s-13.764 35.479-32 39.195zm-152-.805h32v80h-32zm0 120v-24h40c4.418 0 8-3.582 8-8v-96c0-4.418-3.582-8-8-8h-40v-24c0-4.411 3.589-8 8-8h128v32.581c-27.101 3.895-48 27.258-48 55.419s20.899 51.525 48 55.419v32.581h-128c-4.411 0-8-3.589-8-8zm288-40h-32v-80h32zm0-120v24h-40c-4.418 0-8 3.582-8 8v96c0 4.418 3.582 8 8 8h40v24c0 4.411-3.589 8-8 8h-128v-32.581c27.101-3.895 48-27.258 48-55.419s-20.899-51.525-48-55.419v-32.581h128c4.411 0 8 3.589 8 8z"/><path d="m419.278 152.536c5.404 3.944 10.542 8.346 15.271 13.083 1.563 1.566 3.612 2.349 5.662 2.349 2.045 0 4.09-.779 5.652-2.338 3.127-3.122 3.131-8.187.01-11.314-5.315-5.324-11.089-10.271-17.164-14.705-3.57-2.604-8.573-1.823-11.178 1.747-2.604 3.569-1.822 8.573 1.747 11.178z"/><path d="m466.142 179.793c-2.344-3.744-7.28-4.88-11.026-2.536-3.745 2.344-4.88 7.281-2.536 11.026 12.705 20.294 19.42 43.71 19.42 67.717 0 70.58-57.42 128-128 128h-176c-70.58 0-128-57.42-128-128s57.42-128 128-128h176c17.267 0 34.026 3.395 49.812 10.09.495.21.988.423 1.48.639 4.045 1.774 8.765-.066 10.54-4.112s-.066-8.765-4.112-10.54c-.552-.242-1.105-.481-1.661-.716-17.772-7.539-36.633-11.361-56.059-11.361h-176c-79.402 0-144 64.598-144 144s64.598 144 144 144h176c79.402 0 144-64.598 144-144 0-27.014-7.559-53.366-21.858-76.207z"/></svg>