<svg fill="none" height="800" viewBox="0 0 24 24" width="800" xmlns="http://www.w3.org/2000/svg"><g stroke="#292d32" stroke-linecap="round" stroke-linejoin="round" stroke-width="1.5"><path d="m12 12c2.7614 0 5-2.23858 5-5s-2.2386-5-5-5c-2.76142 0-5 2.23858-5 5s2.23858 5 5 5z"/><path d="m19.2101 15.74-3.5401 3.5401c-.14.14-.27.3999-.3.5899l-.19 1.35c-.07.49.27.83.76.76l1.35-.19c.19-.03.46-.16.59-.3l3.54-3.54c.61-.61.9-1.32 0-2.22-.89-.89-1.5999-.6-2.2099.01z" stroke-miterlimit="10"/><path d="m18.7001 16.25c.3 1.08 1.1399 1.92 2.2199 2.22" stroke-miterlimit="10"/><path d="m3.40991 22c0-3.87 3.85003-7 8.58999-7 1.04 0 2.04.15 2.97.43"/></g></svg>