<svg fill="none" height="800" viewBox="0 0 24 24" width="800" xmlns="http://www.w3.org/2000/svg"><g stroke="#292d32" stroke-linecap="round" stroke-linejoin="round" stroke-width="1.5"><path d="m12 12c2.7614 0 5-2.23858 5-5s-2.2386-5-5-5c-2.76142 0-5 2.23858-5 5s2.23858 5 5 5z"/><path d="m3.40991 22c0-3.87 3.85-7 8.58999-7 .96 0 1.89.13 2.76.37"/><g stroke-miterlimit="10"><path d="m22 18c0 .32-.04.63-.12.93-.09.4-.25.79-.46 1.13-.69 1.16-1.96 1.94-3.42 1.94-1.03 0-1.96-.39-2.66-1.03-.3-.26-.56-.57-.76-.91-.37-.6-.58-1.31-.58-2.06 0-1.08.43-2.07 1.13-2.79.73-.75 1.75-1.21 2.87-1.21 1.18 0 2.25.51 2.97 1.33.64.71 1.03 1.65 1.03 2.67z"/><path d="m19.0299 16.9399-2.11 2.11"/><path d="m16.9399 16.96 2.12 2.1099"/></g></g></svg>